<mxfile host="app.diagrams.net" modified="2023-07-04T01:22:56.806Z" agent="Mozilla/5.0 (Windows NT 10.0; Win64; x64) AppleWebKit/537.36 (KHTML, like Gecko) Chrome/114.0.0.0 Safari/537.36 Edg/114.0.1823.67" etag="r_U1yympmALCKeuac4En" version="21.5.0" type="github">
  <diagram id="C5RBs43oDa-KdzZeNtuy" name="Page-1">
    <mxGraphModel dx="953" dy="610" grid="1" gridSize="10" guides="1" tooltips="1" connect="1" arrows="1" fold="1" page="1" pageScale="1" pageWidth="827" pageHeight="1169" math="0" shadow="0">
      <root>
        <mxCell id="WIyWlLk6GJQsqaUBKTNV-0" />
        <mxCell id="WIyWlLk6GJQsqaUBKTNV-1" parent="WIyWlLk6GJQsqaUBKTNV-0" />
        <mxCell id="P9gNGTVGthprN8klh9DY-0" value="" style="rounded=0;whiteSpace=wrap;html=1;" parent="WIyWlLk6GJQsqaUBKTNV-1" vertex="1">
          <mxGeometry x="110" y="100" width="150" height="60" as="geometry" />
        </mxCell>
        <mxCell id="P9gNGTVGthprN8klh9DY-1" value="" style="rounded=0;whiteSpace=wrap;html=1;" parent="WIyWlLk6GJQsqaUBKTNV-1" vertex="1">
          <mxGeometry x="110" y="160" width="150" height="60" as="geometry" />
        </mxCell>
        <mxCell id="P9gNGTVGthprN8klh9DY-3" value="" style="endArrow=none;html=1;rounded=0;strokeColor=#FF0000;jumpSize=20;strokeWidth=8;entryX=1;entryY=1;entryDx=0;entryDy=0;" parent="WIyWlLk6GJQsqaUBKTNV-1" target="P9gNGTVGthprN8klh9DY-0" edge="1">
          <mxGeometry width="50" height="50" relative="1" as="geometry">
            <mxPoint x="110" y="159" as="sourcePoint" />
            <mxPoint x="230" y="159" as="targetPoint" />
          </mxGeometry>
        </mxCell>
        <mxCell id="P9gNGTVGthprN8klh9DY-4" value="" style="triangle;whiteSpace=wrap;html=1;rotation=-90;fillColor=#E5CCFF;" parent="WIyWlLk6GJQsqaUBKTNV-1" vertex="1">
          <mxGeometry x="120" y="127.12" width="18.75" height="36.88" as="geometry" />
        </mxCell>
        <mxCell id="P9gNGTVGthprN8klh9DY-7" value="" style="triangle;whiteSpace=wrap;html=1;rotation=-90;fillColor=#E5CCFF;" parent="WIyWlLk6GJQsqaUBKTNV-1" vertex="1">
          <mxGeometry x="157" y="127.12" width="18.75" height="36.88" as="geometry" />
        </mxCell>
        <mxCell id="P9gNGTVGthprN8klh9DY-8" value="" style="triangle;whiteSpace=wrap;html=1;rotation=-90;fillStyle=auto;fillColor=#E5CCFF;" parent="WIyWlLk6GJQsqaUBKTNV-1" vertex="1">
          <mxGeometry x="195" y="127.12" width="18.75" height="36.88" as="geometry" />
        </mxCell>
        <mxCell id="P9gNGTVGthprN8klh9DY-9" value="" style="triangle;whiteSpace=wrap;html=1;rotation=-90;fillColor=#E5CCFF;" parent="WIyWlLk6GJQsqaUBKTNV-1" vertex="1">
          <mxGeometry x="232" y="127.12" width="18.75" height="36.88" as="geometry" />
        </mxCell>
        <mxCell id="P9gNGTVGthprN8klh9DY-10" value="" style="triangle;whiteSpace=wrap;html=1;rotation=90;fillColor=#FFFF99;" parent="WIyWlLk6GJQsqaUBKTNV-1" vertex="1">
          <mxGeometry x="121" y="154" width="18.75" height="36.88" as="geometry" />
        </mxCell>
        <mxCell id="P9gNGTVGthprN8klh9DY-11" value="" style="triangle;whiteSpace=wrap;html=1;rotation=90;fillColor=#FFFF99;" parent="WIyWlLk6GJQsqaUBKTNV-1" vertex="1">
          <mxGeometry x="157" y="154" width="18.75" height="36.88" as="geometry" />
        </mxCell>
        <mxCell id="P9gNGTVGthprN8klh9DY-12" value="" style="triangle;whiteSpace=wrap;html=1;rotation=90;fillColor=#FFFF99;" parent="WIyWlLk6GJQsqaUBKTNV-1" vertex="1">
          <mxGeometry x="194" y="154" width="18.75" height="36.88" as="geometry" />
        </mxCell>
        <mxCell id="P9gNGTVGthprN8klh9DY-13" value="" style="triangle;whiteSpace=wrap;html=1;rotation=90;fillColor=#FFFF99;" parent="WIyWlLk6GJQsqaUBKTNV-1" vertex="1">
          <mxGeometry x="232" y="154" width="18.75" height="36.88" as="geometry" />
        </mxCell>
        <mxCell id="P9gNGTVGthprN8klh9DY-15" value="bulk1&lt;br&gt;&lt;span style=&quot;&quot;&gt; &lt;/span&gt;material = Silicon" style="text;strokeColor=none;align=center;fillColor=none;html=1;verticalAlign=middle;whiteSpace=wrap;rounded=0;" parent="WIyWlLk6GJQsqaUBKTNV-1" vertex="1">
          <mxGeometry x="113.5" y="100" width="143" height="30" as="geometry" />
        </mxCell>
        <mxCell id="P9gNGTVGthprN8klh9DY-17" value="bulk2&lt;br&gt;&lt;span style=&quot;&quot;&gt; &lt;/span&gt;material = ***" style="text;strokeColor=none;align=center;fillColor=none;html=1;verticalAlign=middle;whiteSpace=wrap;rounded=0;" parent="WIyWlLk6GJQsqaUBKTNV-1" vertex="1">
          <mxGeometry x="113.5" y="183" width="143" height="30" as="geometry" />
        </mxCell>
        <mxCell id="P9gNGTVGthprN8klh9DY-20" value="&lt;div style=&quot;border-color: var(--border-color);&quot;&gt;&lt;div style=&quot;border-color: var(--border-color);&quot;&gt;&lt;font color=&quot;#0000ff&quot; style=&quot;&quot; face=&quot;Times New Roman&quot;&gt;bool SetElementProperty(const Region* region,&amp;nbsp;&lt;/font&gt;&lt;/div&gt;&lt;div style=&quot;border-color: var(--border-color);&quot;&gt;&lt;font color=&quot;#0000ff&quot; face=&quot;Times New Roman&quot;&gt;&amp;nbsp; &amp;nbsp; &amp;nbsp; &amp;nbsp; &amp;nbsp; &amp;nbsp; &amp;nbsp; &amp;nbsp; &amp;nbsp; &amp;nbsp; &amp;nbsp; &amp;nbsp; &amp;nbsp; &amp;nbsp; &amp;nbsp; &amp;nbsp; &amp;nbsp; &amp;nbsp; &amp;nbsp; &amp;nbsp; &amp;nbsp;ElementProperty type = ElementProperty::Gate,&lt;/font&gt;&lt;/div&gt;&lt;div style=&quot;border-color: var(--border-color);&quot;&gt;&lt;font color=&quot;#0000ff&quot; style=&quot;&quot; face=&quot;Times New Roman&quot;&gt;&amp;nbsp; &amp;nbsp; &amp;nbsp; &amp;nbsp; &amp;nbsp; &amp;nbsp; &amp;nbsp; &amp;nbsp; &amp;nbsp; &amp;nbsp; &amp;nbsp; &amp;nbsp; &amp;nbsp; &amp;nbsp; &amp;nbsp; &amp;nbsp; &amp;nbsp; &amp;nbsp; &amp;nbsp; &amp;nbsp; &amp;nbsp;const std::string&amp;amp; material_name = &quot;Silicon&quot;);&lt;/font&gt;&lt;/div&gt;&lt;/div&gt;" style="rounded=0;whiteSpace=wrap;html=1;align=left;" parent="WIyWlLk6GJQsqaUBKTNV-1" vertex="1">
          <mxGeometry x="320" y="20" width="400" height="60" as="geometry" />
        </mxCell>
        <mxCell id="P9gNGTVGthprN8klh9DY-22" value="&lt;font face=&quot;Times New Roman&quot;&gt;Check whether all nodes in the interface element &lt;br&gt;are in the element of the bulk area&lt;/font&gt;" style="rounded=1;whiteSpace=wrap;html=1;" parent="WIyWlLk6GJQsqaUBKTNV-1" vertex="1">
          <mxGeometry x="357" y="113" width="326" height="60" as="geometry" />
        </mxCell>
        <mxCell id="P9gNGTVGthprN8klh9DY-23" value="&lt;font face=&quot;Times New Roman&quot;&gt;set bulk element property&amp;nbsp;contacted with the interface&lt;/font&gt;" style="rounded=1;whiteSpace=wrap;html=1;" parent="WIyWlLk6GJQsqaUBKTNV-1" vertex="1">
          <mxGeometry x="357" y="200" width="326" height="40" as="geometry" />
        </mxCell>
        <mxCell id="P9gNGTVGthprN8klh9DY-24" value="" style="endArrow=classic;html=1;rounded=0;exitX=0.5;exitY=1;exitDx=0;exitDy=0;entryX=0.5;entryY=0;entryDx=0;entryDy=0;" parent="WIyWlLk6GJQsqaUBKTNV-1" source="P9gNGTVGthprN8klh9DY-20" target="P9gNGTVGthprN8klh9DY-22" edge="1">
          <mxGeometry width="50" height="50" relative="1" as="geometry">
            <mxPoint x="330" y="340" as="sourcePoint" />
            <mxPoint x="380" y="290" as="targetPoint" />
          </mxGeometry>
        </mxCell>
        <mxCell id="P9gNGTVGthprN8klh9DY-25" value="" style="endArrow=classic;html=1;rounded=0;exitX=0.5;exitY=1;exitDx=0;exitDy=0;" parent="WIyWlLk6GJQsqaUBKTNV-1" source="P9gNGTVGthprN8klh9DY-22" target="P9gNGTVGthprN8klh9DY-23" edge="1">
          <mxGeometry width="50" height="50" relative="1" as="geometry">
            <mxPoint x="512.66" y="290" as="sourcePoint" />
            <mxPoint x="512.66" y="324" as="targetPoint" />
          </mxGeometry>
        </mxCell>
      </root>
    </mxGraphModel>
  </diagram>
</mxfile>
